# xmcd CD database file generated by MAGIX-FreeDB-MP3_deluxe_17 v3.0beta1
#
# Track frame offsets:
#	150
#	13027
#	27629
#	47407
#	63372
#	78210
#	93286
#	106864
#	123782
#	139098
#	155861
#	170881
#	186413
#	204773
#	220385
#	237146
#	252822
#	269042
#
# Disc length: 3808
#
# Revision: 0
# Processed by: cddbd v1.5.2PL0 Copyright (c) Steve Scherf et al.
# Submitted via: MAGIX-FreeDB-MP3_deluxe_17 v3.0beta1
#
DISCID=fb0ede12
DTITLE=Bellamy Brothers - 02. If I Said You Had A Beautiful Body (Would You Hold It Against Me)
DYEAR=1900
DGENRE=Country
TTITLE0=02. If I Said You Had A Beautiful Body (Would You Hold It Against Me)
TTITLE1=Let Your Love Flow
TTITLE2=Sugar Daddy
TTITLE3=You Ain't Just Whistlin' Dixie
TTITLE4=Lovers Live Longer
TTITLE5=Do You Love As Good As You Look
TTITLE6=For All The Wrong Reasons
TTITLE7=Feelin' The Feelin'
TTITLE8=Redneck Girl
TTITLE9=Lie To You For Your Love
TTITLE10=Old Hippie
TTITLE11=I Love Her Mind
TTITLE12=18. Let Your Love Flow (1998 Reggae Mix)
TTITLE13=Dancin' Cowboys
TTITLE14=Kids Of The Baby Boom
TTITLE15=Crazy From The Heart
TTITLE16=I Need More Of You
TTITLE17=Whem I'm Away From You
EXTD=
EXTT0=
EXTT1=
EXTT2=
EXTT3=
EXTT4=
EXTT5=
EXTT6=
EXTT7=
EXTT8=
EXTT9=
EXTT10=
EXTT11=
EXTT12=
EXTT13=
EXTT14=
EXTT15=
EXTT16=
EXTT17=
PLAYORDER=
